<svg xmlns="http://www.w3.org/2000/svg" width="17" height="16" viewBox="0 0 17 16" fill="none">
  <path d="M8.23594 2.25156C8.17344 2.29323 8.11354 2.34271 8.05625 2.4C7.99896 2.45729 7.95469 2.5224 7.92344 2.59531L6.43906 5.56406L3.11094 6.03281C3.03802 6.05365 2.9651 6.07969 2.89219 6.11094C2.81927 6.14219 2.75156 6.18385 2.68906 6.23594C2.62656 6.28802 2.57188 6.34531 2.525 6.40781C2.47813 6.47031 2.44427 6.54323 2.42344 6.62656C2.4026 6.69948 2.38958 6.775 2.38438 6.85313C2.37917 6.93125 2.38698 7.01198 2.40781 7.09531C2.42865 7.16823 2.4599 7.24115 2.50156 7.31406C2.54323 7.38698 2.5901 7.44948 2.64219 7.50156L5.03281 9.79844L4.47031 13.0484C4.4599 13.1318 4.4599 13.2125 4.47031 13.2906C4.48073 13.3687 4.49635 13.4443 4.51719 13.5172C4.54844 13.5901 4.5901 13.6578 4.64219 13.7203C4.69427 13.7828 4.75156 13.8401 4.81406 13.8922C4.87656 13.9339 4.94427 13.9677 5.01719 13.9937C5.0901 14.0198 5.16823 14.038 5.25156 14.0484C5.32448 14.0589 5.4 14.0562 5.47813 14.0406C5.55625 14.025 5.63177 13.9964 5.70469 13.9547L8.68906 12.4078L11.6578 13.9547C11.7307 13.9964 11.8062 14.025 11.8844 14.0406C11.9625 14.0562 12.0432 14.0589 12.1266 14.0484C12.1995 14.038 12.275 14.0198 12.3531 13.9937C12.4312 13.9677 12.5016 13.9339 12.5641 13.8922C12.6266 13.8401 12.6812 13.7828 12.7281 13.7203C12.775 13.6578 12.8141 13.5901 12.8453 13.5172C12.8766 13.4443 12.8974 13.3687 12.9078 13.2906C12.9182 13.2125 12.913 13.1318 12.8922 13.0484L12.3297 9.79844L14.7359 7.50156C14.788 7.44948 14.8349 7.38698 14.8766 7.31406C14.9182 7.24115 14.9495 7.16823 14.9703 7.09531C14.9911 7.01198 14.999 6.93125 14.9937 6.85313C14.9885 6.775 14.9755 6.69948 14.9547 6.62656C14.9234 6.55365 14.887 6.48333 14.8453 6.41563C14.8036 6.34792 14.7516 6.28802 14.6891 6.23594C14.6266 6.18385 14.5589 6.14219 14.4859 6.11094C14.413 6.07969 14.3349 6.05885 14.2516 6.04844L10.9391 5.56406L9.45469 2.59531C9.41302 2.5224 9.36615 2.45729 9.31406 2.4C9.26198 2.34271 9.19948 2.29323 9.12656 2.25156C9.06406 2.2099 8.99375 2.17865 8.91563 2.15781C8.8375 2.13698 8.76198 2.12656 8.68906 2.12656C8.60573 2.12656 8.5276 2.13698 8.45469 2.15781C8.38177 2.17865 8.30885 2.2099 8.23594 2.25156Z" fill="#DDDDDD"/>
</svg>