<svg xmlns="http://www.w3.org/2000/svg" width="24" height="25" viewBox="0 0 24 25" fill="none">
  <path d="M7.75781 4.74219C6.78906 4.74219 5.96094 5.08594 5.27344 5.77344C4.58594 6.46094 4.24219 7.28906 4.24219 8.25781V16.7422C4.24219 17.7109 4.58594 18.5391 5.27344 19.2266C5.96094 19.9141 6.78906 20.2578 7.75781 20.2578H16.2422C17.2109 20.2578 18.0391 19.9141 18.7266 19.2266C19.4141 18.5391 19.7578 17.7109 19.7578 16.7422V8.25781C19.7578 7.28906 19.4141 6.46094 18.7266 5.77344C18.0391 5.08594 17.2109 4.74219 16.2422 4.74219H7.75781ZM2.74219 8.25781C2.74219 7.55469 2.875 6.90625 3.14062 6.3125C3.40625 5.70312 3.76562 5.17188 4.21875 4.71875C4.67188 4.26562 5.20312 3.90625 5.8125 3.64062C6.40625 3.375 7.05469 3.24219 7.75781 3.24219H16.2422C16.9453 3.24219 17.5938 3.375 18.1875 3.64062C18.7969 3.90625 19.3281 4.26562 19.7812 4.71875C20.2344 5.17188 20.5938 5.70312 20.8594 6.3125C21.125 6.90625 21.2578 7.55469 21.2578 8.25781V16.7422C21.2578 17.4453 21.125 18.0938 20.8594 18.6875C20.5938 19.2969 20.2344 19.8281 19.7812 20.2812C19.3281 20.7344 18.7969 21.0938 18.1875 21.3594C17.5938 21.625 16.9453 21.7578 16.2422 21.7578H7.75781C7.05469 21.7578 6.40625 21.625 5.8125 21.3594C5.20312 21.0938 4.67188 20.7344 4.21875 20.2812C3.76562 19.8281 3.40625 19.2969 3.14062 18.6875C2.875 18.0938 2.74219 17.4453 2.74219 16.7422V8.25781ZM12.3984 9.78125C12.1172 9.73438 11.832 9.73438 11.543 9.78125C11.2539 9.82812 10.9844 9.92188 10.7344 10.0625C10.4844 10.1875 10.2578 10.3555 10.0547 10.5664C9.85156 10.7773 9.67969 11.0078 9.53906 11.2578C9.41406 11.5234 9.32812 11.7969 9.28125 12.0781C9.23438 12.3594 9.23438 12.6484 9.28125 12.9453C9.32812 13.2266 9.41797 13.4961 9.55078 13.7539C9.68359 14.0117 9.85156 14.2422 10.0547 14.4453C10.2578 14.6484 10.4883 14.8164 10.7461 14.9492C11.0039 15.082 11.2734 15.1719 11.5547 15.2188C11.8516 15.2656 12.1406 15.2656 12.4219 15.2188C12.7031 15.1719 12.9766 15.0859 13.2422 14.9609C13.4922 14.8203 13.7227 14.6484 13.9336 14.4453C14.1445 14.2422 14.3125 14.0156 14.4375 13.7656C14.5781 13.5156 14.6719 13.2461 14.7188 12.957C14.7656 12.668 14.7656 12.3828 14.7188 12.1016C14.6719 11.8047 14.582 11.5234 14.4492 11.2578C14.3164 10.9922 14.1484 10.7578 13.9453 10.5547C13.7422 10.3516 13.5078 10.1836 13.2422 10.0508C12.9766 9.91797 12.6953 9.82812 12.3984 9.78125ZM10.0312 8.72656C10.4375 8.52344 10.8594 8.38281 11.2969 8.30469C11.7344 8.22656 12.1797 8.22656 12.6328 8.30469C13.0703 8.36719 13.4961 8.5 13.9102 8.70312C14.3242 8.90625 14.6875 9.17188 15 9.5C15.3281 9.8125 15.5938 10.1758 15.7969 10.5898C16 11.0039 16.1328 11.4297 16.1953 11.8672C16.2734 12.3203 16.2734 12.7656 16.1953 13.2031C16.1172 13.6406 15.9766 14.0625 15.7734 14.4688C15.5703 14.8594 15.3086 15.2109 14.9883 15.5234C14.668 15.8359 14.3125 16.0938 13.9219 16.2969C13.5156 16.5 13.0898 16.6367 12.6445 16.707C12.1992 16.7773 11.7578 16.7734 11.3203 16.6953C10.8828 16.6172 10.4648 16.4766 10.0664 16.2734C9.66797 16.0703 9.3125 15.8125 9 15.5C8.6875 15.1875 8.42969 14.832 8.22656 14.4336C8.02344 14.0352 7.88281 13.6172 7.80469 13.1797C7.72656 12.7422 7.72266 12.3008 7.79297 11.8555C7.86328 11.4102 8 10.9844 8.20312 10.5781C8.40625 10.1875 8.66406 9.83203 8.97656 9.51172C9.28906 9.19141 9.64062 8.92969 10.0312 8.72656ZM15.4922 8C15.4922 7.71875 15.5898 7.48047 15.7852 7.28516C15.9805 7.08984 16.2188 6.99219 16.5 6.99219C16.7812 6.99219 17.0195 7.08984 17.2148 7.28516C17.4102 7.48047 17.5078 7.71875 17.5078 8C17.5078 8.28125 17.4102 8.51953 17.2148 8.71484C17.0195 8.91016 16.7812 9.00781 16.5 9.00781C16.2188 9.00781 15.9805 8.91016 15.7852 8.71484C15.5898 8.51953 15.4922 8.28125 15.4922 8Z" fill="white"/>
</svg>