<svg xmlns="http://www.w3.org/2000/svg" width="24" height="25" viewBox="0 0 24 25" fill="none">
  <path d="M14.0867 5.04758C14.5086 4.87571 14.9461 4.77805 15.3992 4.75462C15.8523 4.73118 16.2977 4.77415 16.7352 4.88352C17.0945 4.97727 17.4344 5.11008 17.7547 5.28196C18.075 5.45384 18.368 5.66477 18.6336 5.91477C18.9773 5.78977 19.3094 5.64134 19.6297 5.46946C19.95 5.29759 20.2586 5.11009 20.5555 4.90696C20.6805 4.81321 20.8211 4.76633 20.9773 4.76633C21.1336 4.76633 21.282 4.8054 21.4227 4.88352C21.5477 4.97727 21.6375 5.09446 21.6922 5.23508C21.7469 5.37571 21.7586 5.52415 21.7273 5.6804C21.5867 6.27415 21.3797 6.83665 21.1063 7.3679C20.8328 7.89915 20.493 8.38352 20.0867 8.82102C20.1023 8.89915 20.1102 8.97337 20.1102 9.04368C20.1102 9.11399 20.1102 9.18821 20.1102 9.26634C20.1102 10.532 19.9695 11.7116 19.6883 12.8054C19.407 13.8991 19.0086 14.8952 18.493 15.7937C17.9773 16.6921 17.368 17.4851 16.6648 18.1726C15.9461 18.8601 15.157 19.4382 14.2977 19.907C13.4539 20.3757 12.5477 20.7195 11.5789 20.9382C10.6258 21.1726 9.64922 21.2781 8.64922 21.2546C7.64922 21.2312 6.64141 21.0788 5.62578 20.7976C4.59453 20.5163 3.59453 20.0945 2.62578 19.532C2.48516 19.4538 2.37969 19.3327 2.30938 19.1687C2.23906 19.0046 2.22734 18.8445 2.27422 18.6882C2.32109 18.5163 2.41484 18.3796 2.55547 18.2781C2.69609 18.1765 2.85234 18.1257 3.02422 18.1257C3.74297 18.157 4.45781 18.0984 5.16875 17.9499C5.87969 17.8015 6.55547 17.571 7.19609 17.2585C6.21172 16.6491 5.43438 15.9695 4.86406 15.2195C4.29375 14.4695 3.87578 13.7038 3.61016 12.9226C3.29766 11.9851 3.14922 11.0788 3.16484 10.2038C3.18047 9.32884 3.25859 8.57102 3.39922 7.9304C3.46172 7.57102 3.61406 7.28196 3.85625 7.06321C4.09844 6.84446 4.37578 6.71165 4.68828 6.66477C4.96953 6.6179 5.25469 6.63743 5.54375 6.72337C5.83281 6.8093 6.09453 6.96165 6.32891 7.1804C6.61016 7.44602 6.90703 7.69212 7.21953 7.91868C7.53203 8.14524 7.86016 8.34446 8.20391 8.51634C8.67266 8.76634 9.16484 8.96165 9.68047 9.10227C10.1961 9.2429 10.7195 9.32884 11.2508 9.36009V9.28977C11.2508 8.83665 11.3133 8.39134 11.4383 7.95384C11.5633 7.51634 11.7508 7.11009 12.0008 6.73509C12.2664 6.34446 12.575 6.00852 12.9266 5.72727C13.2781 5.44602 13.6648 5.21946 14.0867 5.04758ZM16.3602 6.33665C16.0789 6.25852 15.7898 6.23118 15.493 6.25462C15.1961 6.27805 14.907 6.34446 14.6258 6.45384C14.3445 6.56321 14.0867 6.71165 13.8523 6.89915C13.618 7.08665 13.4227 7.3054 13.2664 7.5554C13.0945 7.8054 12.9656 8.07884 12.8797 8.37571C12.7937 8.67259 12.7508 8.97727 12.7508 9.28977V10.1335C12.7508 10.3366 12.6805 10.5124 12.5398 10.6609C12.3992 10.8093 12.2273 10.8835 12.0242 10.8835C11.243 10.8991 10.4695 10.821 9.70391 10.6491C8.93828 10.4773 8.20391 10.2116 7.50078 9.85227C7.09453 9.63352 6.70781 9.39134 6.34062 9.12571C5.97344 8.86009 5.61797 8.57102 5.27422 8.25852C5.22734 8.21165 5.17266 8.17649 5.11016 8.15305C5.04766 8.12962 4.99297 8.12571 4.94609 8.14134C4.93047 8.14134 4.91875 8.14524 4.91094 8.15305C4.90312 8.16087 4.89141 8.16477 4.87578 8.16477C4.87578 8.16477 4.87578 8.16868 4.87578 8.17649C4.87578 8.1843 4.86797 8.19602 4.85234 8.21165C4.74297 8.78977 4.68047 9.44993 4.66484 10.1921C4.64922 10.9343 4.76641 11.6804 5.01641 12.4304C5.26641 13.1804 5.7 13.9148 6.31719 14.6335C6.93437 15.3523 7.84453 15.9851 9.04766 16.532C9.15703 16.5788 9.25078 16.6609 9.32891 16.7781C9.40703 16.8952 9.45391 17.0163 9.46953 17.1413C9.48516 17.282 9.46563 17.4109 9.41094 17.5281C9.35625 17.6452 9.27422 17.7429 9.16484 17.821C8.66484 18.1648 8.14141 18.4616 7.59453 18.7116C7.04766 18.9616 6.49297 19.1648 5.93047 19.321C6.60234 19.5085 7.27422 19.6335 7.94609 19.696C8.61797 19.7585 9.27813 19.7585 9.92656 19.696C10.575 19.6335 11.2117 19.5085 11.8367 19.321C12.4461 19.1335 13.032 18.8913 13.5945 18.5945C14.3133 18.2038 14.9852 17.7116 15.6102 17.1179C16.2195 16.5241 16.7469 15.8366 17.1922 15.0554C17.6375 14.2741 17.9852 13.3991 18.2352 12.4304C18.4852 11.4616 18.6102 10.407 18.6102 9.26634C18.6102 9.17259 18.6063 9.07884 18.5984 8.98509C18.5906 8.89134 18.5789 8.79759 18.5633 8.70384C18.532 8.59446 18.5359 8.48118 18.575 8.36399C18.6141 8.2468 18.6805 8.14134 18.7742 8.04759C18.8992 7.92259 19.0164 7.78977 19.1258 7.64915C19.2352 7.50852 19.3445 7.3679 19.4539 7.22727C19.3133 7.27415 19.1766 7.32102 19.0438 7.3679C18.9109 7.41477 18.782 7.46165 18.657 7.50852C18.5164 7.5554 18.3719 7.5554 18.2234 7.50852C18.075 7.46165 17.9539 7.38352 17.8602 7.27415C17.657 7.03977 17.4305 6.84446 17.1805 6.68821C16.9305 6.53196 16.657 6.41477 16.3602 6.33665Z" fill="white"/>
</svg>