<svg width="69" height="67" viewBox="0 0 69 67" fill="none" xmlns="http://www.w3.org/2000/svg">
<rect x="0.921875" y="0.699951" width="67.85" height="65.55" rx="6.9" fill="#F99469" fill-opacity="0.24"/>
<path d="M57.5526 17.9702L35.9901 10.7827C35.6213 10.6597 35.2225 10.6597 34.8536 10.7827L13.2911 17.9702C12.9333 18.0894 12.6221 18.3183 12.4016 18.6242C12.1811 18.9302 12.0625 19.2978 12.0625 19.6749V37.6437C12.0625 38.1202 12.2518 38.5773 12.5888 38.9143C12.9258 39.2513 13.3828 39.4406 13.8594 39.4406C14.3359 39.4406 14.793 39.2513 15.13 38.9143C15.4669 38.5773 15.6563 38.1202 15.6563 37.6437V22.1681L23.2009 24.6815C21.1964 27.9199 20.5589 31.8215 21.4286 35.5294C22.2982 39.2374 24.6038 42.4488 27.8391 44.4583C23.7961 46.0441 20.3012 48.9123 17.7451 52.834C17.6122 53.0316 17.5198 53.2536 17.4735 53.4872C17.4271 53.7208 17.4276 53.9612 17.475 54.1946C17.5224 54.428 17.6157 54.6496 17.7495 54.8466C17.8832 55.0436 18.0549 55.212 18.2543 55.3421C18.4538 55.4722 18.6771 55.5614 18.9113 55.6044C19.1455 55.6474 19.386 55.6435 19.6186 55.5928C19.8513 55.542 20.0716 55.4456 20.2666 55.309C20.4617 55.1724 20.6277 54.9984 20.7549 54.7971C24.1397 49.6041 29.4855 46.6281 35.4219 46.6281C41.3583 46.6281 46.704 49.6041 50.0889 54.7971C50.3524 55.1888 50.7595 55.4611 51.2222 55.555C51.6849 55.6489 52.1659 55.557 52.5614 55.2991C52.9568 55.0411 53.2348 54.638 53.3354 54.1767C53.4359 53.7154 53.3509 53.2331 53.0986 52.834C50.5426 48.9123 47.0342 46.0441 43.0047 44.4583C46.2369 42.4489 48.5403 39.2396 49.4098 35.5343C50.2792 31.8291 49.6438 27.9302 47.6429 24.6927L57.5526 21.391C57.9105 21.2717 58.2218 21.0429 58.4424 20.737C58.663 20.431 58.7817 20.0634 58.7817 19.6862C58.7817 19.309 58.663 18.9413 58.4424 18.6354C58.2218 18.3294 57.9105 18.1006 57.5526 17.9814V17.9702ZM46.2031 32.2531C46.2036 33.9575 45.8 35.6378 45.0253 37.1561C44.2507 38.6743 43.1271 39.9873 41.7467 40.9872C40.3664 41.9871 38.7686 42.6455 37.0846 42.9084C35.4005 43.1713 33.6781 43.0311 32.0587 42.4994C30.4393 41.9677 28.969 41.0596 27.7685 39.8496C26.568 38.6397 25.6715 37.1623 25.1525 35.5388C24.6336 33.9153 24.5069 32.1918 24.783 30.5099C25.0591 28.8279 25.73 27.2354 26.7407 25.8629L34.8536 28.5582C35.2225 28.6812 35.6213 28.6812 35.9901 28.5582L44.103 25.8629C45.468 27.7138 46.2041 29.9533 46.2031 32.2531Z" fill="#FE3900"/>
</svg>
