<svg width="69" height="67" viewBox="0 0 69 67" fill="none" xmlns="http://www.w3.org/2000/svg">
<rect x="0.222656" y="0.699951" width="67.85" height="65.55" rx="6.9" fill="#F99469" fill-opacity="0.24"/>
<path d="M23.1508 16.8C21.9498 16.8 20.7981 17.2771 19.9489 18.1263C19.0997 18.9755 18.6227 20.1272 18.6227 21.3282V36.4219C18.6227 37.6229 19.0997 38.7746 19.9489 39.6238C20.7981 40.473 21.9498 40.95 23.1508 40.95H42.8733C42.0201 40.1145 41.3934 39.0757 41.052 37.9313H23.1508C22.7505 37.9313 22.3666 37.7723 22.0835 37.4892C21.8004 37.2061 21.6414 36.8222 21.6414 36.4219V21.3282C21.6414 20.9279 21.8004 20.5439 22.0835 20.2609C22.3666 19.9778 22.7505 19.8188 23.1508 19.8188H46.2945C46.6948 19.8188 47.0788 19.9778 47.3618 20.2609C47.6449 20.5439 47.8039 20.9279 47.8039 21.3282V28.875C48.8846 28.875 49.907 29.1165 50.8227 29.5533V21.3282C50.8227 20.7335 50.7055 20.1447 50.478 19.5953C50.2504 19.046 49.9169 18.5468 49.4964 18.1263C49.0759 17.7058 48.5767 17.3723 48.0274 17.1447C47.478 16.9172 46.8892 16.8 46.2945 16.8H23.1508ZM16.107 43.9688H37.355C36.9461 44.7601 36.7335 45.638 36.7352 46.5287V46.736C36.7352 46.8205 36.7365 46.9044 36.7392 46.9875H16.107C15.7067 46.9875 15.3228 46.8285 15.0397 46.5455C14.7567 46.2624 14.5977 45.8785 14.5977 45.4782C14.5977 45.0779 14.7567 44.6939 15.0397 44.4109C15.3228 44.1278 15.7067 43.9688 16.107 43.9688ZM52.8352 35.9188C52.8352 37.2532 52.3051 38.5329 51.3615 39.4764C50.418 40.42 49.1383 40.95 47.8039 40.95C46.4695 40.95 45.1898 40.42 44.2463 39.4764C43.3027 38.5329 42.7727 37.2532 42.7727 35.9188C42.7727 34.5844 43.3027 33.3047 44.2463 32.3612C45.1898 31.4176 46.4695 30.8875 47.8039 30.8875C49.1383 30.8875 50.418 31.4176 51.3615 32.3612C52.3051 33.3047 52.8352 34.5844 52.8352 35.9188ZM56.8602 46.736C56.8602 49.8674 54.2721 53.025 47.8039 53.025C41.3357 53.025 38.7477 49.8795 38.7477 46.736V46.5287C38.7477 44.5564 40.3456 42.9625 42.3158 42.9625H53.292C55.2642 42.9625 56.8602 44.5585 56.8602 46.5287V46.736Z" fill="#FE3900"/>
</svg>
