<svg xmlns="http://www.w3.org/2000/svg" width="24" height="25" viewBox="0 0 24 25" fill="none">
  <path d="M15.9375 10.8125C15.3594 10.8125 14.7969 10.9258 14.25 11.1523C13.7031 11.3789 13.2266 11.7031 12.8203 12.125C12.3984 12.5469 12.0742 13.0352 11.8477 13.5898C11.6211 14.1445 11.5078 14.7188 11.5078 15.3125V20.6797H13.4297V15.3125C13.4297 14.9688 13.4922 14.6445 13.6172 14.3398C13.7422 14.0352 13.9219 13.7578 14.1562 13.5078C14.3906 13.2734 14.6641 13.0938 14.9766 12.9688C15.2891 12.8438 15.6094 12.7812 15.9375 12.7812C16.2656 12.7812 16.5859 12.8438 16.8984 12.9688C17.2109 13.0938 17.4844 13.2734 17.7188 13.5078C17.9531 13.7578 18.1328 14.0352 18.2578 14.3398C18.3828 14.6445 18.4453 14.9688 18.4453 15.3125V20.6797H20.3672V15.3125C20.3672 14.7188 20.2539 14.1445 20.0273 13.5898C19.8008 13.0352 19.4766 12.5469 19.0547 12.125C18.6484 11.7031 18.1719 11.3789 17.625 11.1523C17.0781 10.9258 16.5156 10.8125 15.9375 10.8125ZM11.6953 11.0234C12.2578 10.4609 12.9062 10.0234 13.6406 9.71094C14.375 9.39844 15.1406 9.24219 15.9375 9.24219C16.7344 9.24219 17.5 9.39844 18.2344 9.71094C18.9688 10.0234 19.6172 10.4609 20.1797 11.0234C20.7266 11.6016 21.1523 12.2617 21.457 13.0039C21.7617 13.7461 21.9141 14.5156 21.9141 15.3125V21.4766C21.9141 21.6953 21.8398 21.8789 21.6914 22.0273C21.543 22.1758 21.3594 22.25 21.1406 22.25H17.6719C17.4531 22.25 17.2695 22.1758 17.1211 22.0273C16.9727 21.8789 16.8984 21.6953 16.8984 21.4766V15.3125C16.8984 15.1719 16.8711 15.043 16.8164 14.9258C16.7617 14.8086 16.6953 14.7031 16.6172 14.6094C16.5234 14.5156 16.418 14.4453 16.3008 14.3984C16.1836 14.3516 16.0625 14.3281 15.9375 14.3281C15.8125 14.3281 15.6914 14.3516 15.5742 14.3984C15.457 14.4453 15.3516 14.5156 15.2578 14.6094C15.1797 14.7031 15.1133 14.8086 15.0586 14.9258C15.0039 15.043 14.9766 15.1719 14.9766 15.3125V21.4766C14.9766 21.6953 14.9023 21.8789 14.7539 22.0273C14.6055 22.1758 14.4219 22.25 14.2031 22.25H10.7344C10.5156 22.25 10.332 22.1758 10.1836 22.0273C10.0352 21.8789 9.96094 21.6953 9.96094 21.4766V15.3125C9.96094 14.5156 10.1133 13.7461 10.418 13.0039C10.7227 12.2617 11.1484 11.6016 11.6953 11.0234ZM2.46094 10.5078C2.46094 10.2891 2.53516 10.1094 2.68359 9.96875C2.83203 9.82812 3.00781 9.75781 3.21094 9.75781H7.21875C7.42188 9.75781 7.59766 9.82812 7.74609 9.96875C7.89453 10.1094 7.96875 10.2891 7.96875 10.5078V21.5C7.96875 21.7031 7.89453 21.8789 7.74609 22.0273C7.59766 22.1758 7.42188 22.25 7.21875 22.25H3.21094C3.00781 22.25 2.83203 22.1758 2.68359 22.0273C2.53516 21.8789 2.46094 21.7031 2.46094 21.5V10.5078ZM3.96094 11.2578V20.75H6.46875V11.2578H3.96094ZM5.20312 2.375C4.34375 2.375 3.60938 2.67969 3 3.28906C2.39062 3.89844 2.08594 4.63281 2.08594 5.49219C2.08594 6.36719 2.39062 7.10938 3 7.71875C3.60938 8.32812 4.34375 8.63281 5.20312 8.63281C6.0625 8.63281 6.80078 8.32812 7.41797 7.71875C8.03516 7.10938 8.34375 6.36719 8.34375 5.49219C8.34375 4.63281 8.03516 3.89844 7.41797 3.28906C6.80078 2.67969 6.0625 2.375 5.20312 2.375ZM3.58594 5.49219C3.58594 5.05469 3.74219 4.67578 4.05469 4.35547C4.36719 4.03516 4.75 3.875 5.20312 3.875C5.65625 3.875 6.04297 4.03516 6.36328 4.35547C6.68359 4.67578 6.84375 5.05469 6.84375 5.49219C6.84375 5.94531 6.68359 6.33203 6.36328 6.65234C6.04297 6.97266 5.65625 7.13281 5.20312 7.13281C4.75 7.13281 4.36719 6.97266 4.05469 6.65234C3.74219 6.33203 3.58594 5.94531 3.58594 5.49219Z" fill="white"/>
</svg>