<svg width="68" height="67" viewBox="0 0 68 67" fill="none" xmlns="http://www.w3.org/2000/svg">
<rect x="0.0703125" y="0.699951" width="67.85" height="65.55" rx="6.9" fill="#F99469" fill-opacity="0.24"/>
<path d="M15.4023 50.1498V21.3998H26.9023V13.7332H42.2357V21.3998H53.7357V33.4269C53.1607 33.0116 52.5461 32.6526 51.8918 32.3497C51.2376 32.0469 50.5745 31.783 49.9023 31.5582V25.2332H19.2357V46.3165H32.7961C32.8919 46.9873 33.0357 47.6422 33.2273 48.2811C33.419 48.92 33.6586 49.5429 33.9461 50.1498H15.4023ZM30.7357 21.3998H38.4023V17.5665H30.7357V21.3998ZM46.069 53.9832C43.4176 53.9832 41.1579 53.0485 39.2898 51.1791C37.4216 49.3097 36.487 47.0499 36.4857 44.3998C36.4844 41.7497 37.4191 39.49 39.2898 37.6206C41.1604 35.7512 43.4202 34.8165 46.069 34.8165C48.7178 34.8165 50.9782 35.7512 52.8502 37.6206C54.7221 39.49 55.6562 41.7497 55.6523 44.3998C55.6485 47.0499 54.7138 49.3103 52.8483 51.181C50.9827 53.0517 48.723 53.9857 46.069 53.9832ZM47.0273 44.0165V38.6498H45.1107V44.7832L49.2315 48.904L50.5732 47.5623L47.0273 44.0165Z" fill="#FE3900"/>
</svg>
