<svg xmlns="http://www.w3.org/2000/svg" width="24" height="25" viewBox="0 0 24 25" fill="none">
  <path d="M12.0703 19.7891H11.8828C11.8047 19.7891 11.707 19.7891 11.5898 19.7891C11.4727 19.7891 11.3438 19.7891 11.2031 19.7891C10.9219 19.7891 10.5898 19.7852 10.207 19.7773C9.82422 19.7695 9.42969 19.7578 9.02344 19.7422C8.60156 19.7266 8.17969 19.7109 7.75781 19.6953C7.33594 19.6797 6.92969 19.6562 6.53906 19.625C6.16406 19.5938 5.80859 19.5586 5.47266 19.5195C5.13672 19.4805 4.85938 19.4375 4.64062 19.3906C4.39062 19.3125 4.14844 19.207 3.91406 19.0742C3.67969 18.9414 3.46875 18.7812 3.28125 18.5938C3.09375 18.4062 2.93359 18.1992 2.80078 17.9727C2.66797 17.7461 2.5625 17.5078 2.48438 17.2578C2.48438 17.2422 2.48438 17.2266 2.48438 17.2109C2.48438 17.1953 2.47656 17.1875 2.46094 17.1875C2.33594 16.4062 2.23828 15.6289 2.16797 14.8555C2.09766 14.082 2.0625 13.3047 2.0625 12.5234C2.0625 11.7422 2.09766 10.9648 2.16797 10.1914C2.23828 9.41797 2.33594 8.64844 2.46094 7.88281C2.47656 7.88281 2.48438 7.87891 2.48438 7.87109C2.48438 7.86328 2.48438 7.85156 2.48438 7.83594C2.54688 7.57031 2.64453 7.32031 2.77734 7.08594C2.91016 6.85156 3.07031 6.64062 3.25781 6.45312C3.44531 6.25 3.65625 6.07812 3.89062 5.9375C4.125 5.79688 4.375 5.69531 4.64062 5.63281V5.60938C4.85938 5.5625 5.13672 5.51953 5.47266 5.48047C5.80859 5.44141 6.16406 5.40625 6.53906 5.375C6.92969 5.34375 7.33594 5.32031 7.75781 5.30469C8.17969 5.28906 8.60156 5.27344 9.02344 5.25781C9.42969 5.24219 9.82422 5.23047 10.207 5.22266C10.5898 5.21484 10.9219 5.21094 11.2031 5.21094C11.3438 5.21094 11.4727 5.21094 11.5898 5.21094C11.707 5.21094 11.8047 5.21094 11.8828 5.21094H12.1406H12.3984C12.4922 5.21094 12.5938 5.21094 12.7031 5.21094C12.8125 5.21094 12.9453 5.21094 13.1016 5.21094C13.3828 5.21094 13.7109 5.21484 14.0859 5.22266C14.4609 5.23047 14.8594 5.24219 15.2812 5.25781C15.6875 5.25781 16.1055 5.26953 16.5352 5.29297C16.9648 5.31641 17.3672 5.33594 17.7422 5.35156C18.1172 5.38281 18.4727 5.41406 18.8086 5.44531C19.1445 5.47656 19.4219 5.52344 19.6406 5.58594C19.6406 5.58594 19.6445 5.58594 19.6523 5.58594C19.6602 5.58594 19.6641 5.58594 19.6641 5.58594C19.9297 5.66406 20.1758 5.77344 20.4023 5.91406C20.6289 6.05469 20.8438 6.21875 21.0469 6.40625C21.2344 6.60938 21.3945 6.82812 21.5273 7.0625C21.6602 7.29688 21.7578 7.54688 21.8203 7.8125C21.9609 8.57812 22.0664 9.35938 22.1367 10.1562C22.207 10.9531 22.2344 11.7422 22.2188 12.5234C22.2344 13.2891 22.207 14.0547 22.1367 14.8203C22.0664 15.5859 21.9609 16.3516 21.8203 17.1172C21.8203 17.1172 21.8203 17.1211 21.8203 17.1289C21.8203 17.1367 21.8203 17.1484 21.8203 17.1641C21.7578 17.4297 21.6602 17.6797 21.5273 17.9141C21.3945 18.1484 21.2344 18.3594 21.0469 18.5469C20.8438 18.75 20.6289 18.9219 20.4023 19.0625C20.1758 19.2031 19.9297 19.3047 19.6641 19.3672V19.3906C19.4297 19.4375 19.1484 19.4805 18.8203 19.5195C18.4922 19.5586 18.1406 19.5938 17.7656 19.625C17.375 19.6562 16.9648 19.6797 16.5352 19.6953C16.1055 19.7109 15.6875 19.7266 15.2812 19.7422C14.8594 19.7578 14.4609 19.7695 14.0859 19.7773C13.7109 19.7852 13.3828 19.7891 13.1016 19.7891C12.9453 19.7891 12.8125 19.7891 12.7031 19.7891C12.5938 19.7891 12.4922 19.7891 12.3984 19.7891H12.1406H12.0703ZM10.9922 9.33594C10.8984 9.28906 10.793 9.26562 10.6758 9.26562C10.5586 9.26562 10.4453 9.28906 10.3359 9.33594C10.2422 9.39844 10.168 9.48047 10.1133 9.58203C10.0586 9.68359 10.0312 9.78906 10.0312 9.89844V14.9141C10.0312 15.0234 10.0586 15.1289 10.1133 15.2305C10.168 15.332 10.2422 15.4062 10.3359 15.4531C10.4453 15.5156 10.5586 15.5469 10.6758 15.5469C10.793 15.5469 10.8984 15.5234 10.9922 15.4766L15.3984 12.9688C15.4922 12.9062 15.5703 12.8242 15.6328 12.7227C15.6953 12.6211 15.7266 12.5156 15.7266 12.4062C15.7266 12.2812 15.6953 12.1719 15.6328 12.0781C15.5703 11.9844 15.4922 11.9062 15.3984 11.8438L10.9922 9.33594Z" fill="white"/>
</svg>